<?xml version="1.0" encoding="utf-8"?>
<!-- Generator: Adobe Illustrator 19.2.1, SVG Export Plug-In . SVG Version: 6.00 Build 0)  -->
<svg version="1.1" id="Layer_1" xmlns="http://www.w3.org/2000/svg" xmlns:xlink="http://www.w3.org/1999/xlink" x="0px" y="0px"
	 viewBox="0 0 774.9 505.1" style="enable-background:new 0 0 774.9 505.1;" xml:space="preserve">
<style type="text/css">
	.st0{fill-rule:evenodd;clip-rule:evenodd;fill:#010101;}
	.st1{fill-rule:evenodd;clip-rule:evenodd;fill:#FFFFFF;}
	.st2{fill-rule:evenodd;clip-rule:evenodd;fill:#010201;}
	.st3{fill-rule:evenodd;clip-rule:evenodd;fill:#040504;}
	.st4{fill-rule:evenodd;clip-rule:evenodd;fill:#EBEAEA;}
	.st5{fill-rule:evenodd;clip-rule:evenodd;fill:#444545;}
	.st6{fill-rule:evenodd;clip-rule:evenodd;fill:#C3C1C1;}
	.st7{fill-rule:evenodd;clip-rule:evenodd;fill:#6A6A69;}
	.st8{fill-rule:evenodd;clip-rule:evenodd;fill:#DCDCDC;}
	.st9{fill-rule:evenodd;clip-rule:evenodd;fill:#DFDFDF;}
	.st10{fill-rule:evenodd;clip-rule:evenodd;fill:#CCCCCC;}
	.st11{fill-rule:evenodd;clip-rule:evenodd;fill:#555454;}
	.st12{fill-rule:evenodd;clip-rule:evenodd;fill:#DEDDDD;}
	.st13{fill-rule:evenodd;clip-rule:evenodd;fill:#ABAAAA;}
	.st14{fill-rule:evenodd;clip-rule:evenodd;fill:#A2A1A1;}
	.st15{fill-rule:evenodd;clip-rule:evenodd;fill:#D1D0D0;}
	.st16{fill-rule:evenodd;clip-rule:evenodd;fill:#666666;}
	.st17{fill-rule:evenodd;clip-rule:evenodd;fill:#F7F6F6;}
	.st18{fill-rule:evenodd;clip-rule:evenodd;fill:#FAFAFA;}
	.st19{fill-rule:evenodd;clip-rule:evenodd;fill:#F5F4F4;}
	.st20{fill-rule:evenodd;clip-rule:evenodd;fill:#F9F9F8;}
	.st21{fill-rule:evenodd;clip-rule:evenodd;fill:#F6F6F5;}
	.st22{fill-rule:evenodd;clip-rule:evenodd;fill:#F7F7F6;}
	.st23{fill-rule:evenodd;clip-rule:evenodd;fill:#F6F5F5;}
	.st24{fill-rule:evenodd;clip-rule:evenodd;fill:#F3F3F2;}
	.st25{fill-rule:evenodd;clip-rule:evenodd;fill:#EEEEED;}
	.st26{fill-rule:evenodd;clip-rule:evenodd;fill:#F1F0EF;}
	.st27{fill-rule:evenodd;clip-rule:evenodd;fill:#F2F1F1;}
	.st28{fill-rule:evenodd;clip-rule:evenodd;fill:#EAEAE9;}
	.st29{fill-rule:evenodd;clip-rule:evenodd;fill:#E8E8E7;}
	.st30{fill-rule:evenodd;clip-rule:evenodd;fill:#DCDBDA;}
	.st31{fill-rule:evenodd;clip-rule:evenodd;fill:#C5C4C4;}
	.st32{fill-rule:evenodd;clip-rule:evenodd;fill:#FAFAF9;}
	.st33{fill-rule:evenodd;clip-rule:evenodd;fill:#F2F2F1;}
	.st34{fill-rule:evenodd;clip-rule:evenodd;fill:#EFEEEE;}
	.st35{fill-rule:evenodd;clip-rule:evenodd;fill:#E6E5E5;}
	.st36{fill-rule:evenodd;clip-rule:evenodd;fill:#DDDDDD;}
	.st37{fill-rule:evenodd;clip-rule:evenodd;fill:#CBC9C9;}
	.st38{fill-rule:evenodd;clip-rule:evenodd;fill:#E7E6E6;}
	.st39{fill-rule:evenodd;clip-rule:evenodd;fill:#E8E7E7;}
	.st40{fill-rule:evenodd;clip-rule:evenodd;fill:#E3E2E2;}
	.st41{fill-rule:evenodd;clip-rule:evenodd;fill:#EAE9E9;}
	.st42{fill-rule:evenodd;clip-rule:evenodd;fill:#E5E4E4;}
	.st43{fill-rule:evenodd;clip-rule:evenodd;fill:#D2D1D1;}
	.st44{fill:#FFFFFF;}
</style>
<g>
	<path class="st0" d="M176.4,227.2c0.2,0.1,0.2,0.2,0.1,0.4c-0.2,1.7,1.2,2.7,1.8,4.1c0.1,0.2,0.2,0.5,0.2,0.7
		c0.3,1.7,1.2,3.5,0,5.2c0.7,0.3,1.1-0.2,1.7-0.2c0.7-0.1,1.5-0.3,2.2-0.3c2.9,1-0.1,2.3,0.2,3.5c0.7,3.1,0.9,3.3,3.7,2.1
		c7-2.8,14.1-5.6,21.4-7.7c0.9-0.3,1.9-0.6,2.5-1.5c1.2-1.2,1.9-2.8,3.2-3.9c0.2-0.3,0.4-0.6,0.7-0.8c1.4-0.3,1.4-0.3,1.9,0.7
		c0.5-1.3-1-1.6-1.2-2.5c-0.1-0.3,0-0.5,0.1-0.7c0.2-0.4,0.5-0.8,0.5-1.2c-0.2-2.8,0.2-5.3,2.9-7c0.1-0.2,0.3-0.4,0.5-0.6
		c0.5-0.4,1.5-0.6,0.3-1.4c-0.8-0.6-2.3-1.2-0.8-2.5c1.9-1.6,3.8-3.3,6.1-4.4c1.2-0.5-0.1-1.7,0.5-2.4c0.8-1,1.7-2,2.6-3
		c0.4-0.7,0.1-0.8-0.6-0.6c-0.5,0.2-1,0.4-1.5,0.5c-1,0.3-1.9,1.3-2.9,0.3c-1-1,0.2-1.9,0.6-2.9c-1,0.1-1.9,1-2.7-0.1
		c-0.9-0.2,0.8-2.1-1.1-1.7c-1.7-1.1-2.6-0.3-3.7,1c-2.2,2.8-4.6,5.5-7,8.2c-2.7-3.4-2.7-3.5,0.1-6.3c7.8-7.7,13.9-16.8,20.8-25.2
		c2.9-3.5,2.8-3.5,7.5-1.9c-2.6,3-5.1,5.9-7.5,8.9c-0.8,0.9-1.4,1.5-1,3.2c0.5,2.1-1.6,3.9-2.1,5.9c-0.1,0.3-0.3,0.7,0,0.9
		c0.2,0.1,0.5-0.1,0.7-0.2c1.2-1,2.3-2,3.5-2.9c0.6-0.4,1.2-1.4,2-0.5c0.8,0.8,0.4,1.7-0.2,2.4c-1.6,2-3.2,4.1-5,6.4
		c2.2-0.2,3.6-1.7,5.4-2.3c1.2-0.4,2.5-2,3.6-0.8c1.2,1.4-0.6,2.5-1.4,3.6c-0.2,0.8,0.4,0.2,0.6,0.4c1.1-0.2,2.1-1.8,3.3-0.1
		c0.4,0.5,0.8,0,1.1-0.2c2.2-1.3,4.4-2.5,6.5-3.8c1.5-1,1.3-4.6-0.2-5.5c-0.3-0.2-0.7-0.4-0.8-0.7c-0.8-3.8-2.6-7.5-1.7-11.6
		c1.3-6.3,2.4-12.7,3.5-19.1c0.1-0.8,0.3-1.6-0.2-2.4c-3.3-5.1-7.4-9.5-12.8-12.5c-1.5-0.9-3.4-0.1-5-0.5c1.1-4.3,1.1-4.3,5.4-4.2
		c2.9,0,5.8-0.1,8.6,0.2c2.8,0.3,3.2-0.8,2.9-3.3c-0.4-3-0.3-6.1-0.4-9.2c0-2.3,1-3.3,3.5-3c1.3,0.1,1.8,0.7,1.9,1.8
		c0.1,1.6,0.4,2.6,2.3,2.3c1.5-0.2,3.4,0.5,3.4-2.1c0-2.2,1.5-1.9,3-2c1.7-0.1,2.2,0.7,2.3,2.2c0,1.3,0.6,2,2,1.8c1-0.1,2-0.1,3,0
		c0.9,0,1.3-0.2,1.5-1.3c1.3-8,1.3-16.2-0.6-23.9c-1.4-5.4-1.7-10.9-3-16.2c-0.4-1.8-0.1-2.6,1.9-2.3c1.3,0.2,1.9-0.7,2.6-1.5
		c4.1-4.9,8.3-9.7,12.4-14.7c1.1-1.4,1.6-1.3,2.7,0.1c3.6,4.6,7.4,9.1,11.1,13.6c0.8,0.9,1.4,2.2,3,2c1-0.1,0.8,0.8,0.8,1.3
		c0.2,4.6,0.3,9.2,0.4,13.8c0,0.7,0.3,1.6-0.8,1.6c-3.1-0.1-1.9,2.3-2,3.7c-0.2,1.6-1.1,3.7,1.5,4.4c4.9,1.3,6.1,4.6,5.4,9.3
		c-0.4,2.5-0.1,5,0,7.6c0,1-0.7,2.6,1.4,2.5c1.5-0.1,3.7,0.8,3.8-2c0-1.7,0.9-1.9,2.4-2c3.4-0.4,3,2.2,3.1,4
		c0.2,5.7,0.5,11.4-0.6,17c-1,5.2-0.4,10.2,0.4,15.2c0.2,1.1,0.7,2.3-0.8,3c-1,0.5-0.6,1.4-0.6,2.2c0,5.4,1.7,10.6,2.7,16
		c0.9-3.8,1.7-7.6,2.7-11.4c2.6-9.9,2-20,2.6-30.1c0.9-14.9,1.5-29.9,2.1-44.8c0.1-1.4,0.5-2.2,1.6-3.1c3.9-2.9,7.6-6,11.5-9
		c1.1-0.8,1.5-1.7,1.8-3.1c1.2-6.5-0.7-12.7-1.6-19c-0.3-2.6-0.1-4.5,1.9-6.4c4.7-4.5,9.1-9.2,13.6-13.9c1.2-1.2,2.1-1.5,3.7-0.8
		c3.6,1.6,7.3,3,11,4.5c1.4,0.6,2.3,0.6,2-1.3c-0.2-1.4,1-3.4-1.6-3.8c-0.5-0.1-0.1-0.6,0-0.9c0.7-1.8,1.4-3.5,2-5.3
		c0.4-1.1,1.1-0.9,1.9-0.9c3.5,0,7,0,10.5,0c1.4,0,2.3-0.2,2-1.9c-0.1-0.4,0-0.9,0-1.4c0-2.2,0.2-4.2,1.4-6.5
		c1.6-3.1,0.8-6.9,0.5-10.4c-0.1-0.6-0.3-1.2-0.3-1.9c-0.1-2.3-1.5-5.5,3.2-4.7c0.3,0,0.6-0.3,0.9-0.5c4.9-3.8,10.7-5,16.6-5.7
		c1.5-0.2,3-0.2,4.6,0.2c4.2,1,5.6,2.9,4.4,6.9c-0.5,1.7,0.1,1.9,1.5,2.4c9.4,3.2,19,2.3,28.6,0.9c1.2-0.2,2.3-0.3,3.5-0.4
		c0.5-0.2,1.2-0.5,1.1,0.5c-10.6,7.7-22.4,12.1-35.7,11.9c-2.3,0-4.5-0.4-6.7-0.9c-2.2-0.5-3.1-1.7-2.1-3.9c0.4-0.9,0.8-1.8,1.1-2.7
		c0.7-2,0.1-2.6-2.1-2.3c-6.3,1-11,4.6-15,9.3c-0.6,0.7-1.3,1.6,0,2.4c0.6,0.3,0.5,1,0.4,1.4c-1,5.5,1.8,9.9,3.9,14.5
		c0.4,0.8,1,1.5,0.9,2.7c-3.4-1.1-3.5,0.9-3.2,3.3c0,0.4,0.1,0.7,0,1.1c-0.8,5.1,0.1,9.1,6.2,10c1.1,0.2,1.4,0.8,1,2
		c-0.6,1.8-0.7,3.7-1.3,5.5c-2,6.1-0.1,12.1,0.1,18.2c0.1,4.6,2.3,8.1,4.8,11.7c3.6,5.3,7.1,10.6,10.7,15.9c0.7,1.1,1,2.3,1,3.5
		c0.2,14.2,0.6,28.3,0.5,42.5c-0.1,5.4-1.7,10.8-2.2,16.3c-0.9,9.6-1.3,19.3,3,28.4c0.5,1,1,1.9,1.6,2.8c0.5,0.7,1.1,1.4,2,2.3
		c1.2-7.1,1.5-13.8,1-20.6c-0.1-1.8-0.4-3.6-0.3-5.4c0.2-2.5-0.3-4.6-3-5.5c-1.5-0.5-1.2-1.4-0.6-2.5c1.6-3,2.8-6.2,4.6-9.1
		c2.5-4.3,3.7-8.7,3.1-13.6c-0.2-1.9,0.2-3.2,2.5-2.7c1.9,0.4,2.7-0.6,3.4-2.2c1.1-2.5,2.5-5,3.6-7.5c0.6-1.4,1.1-1.5,2.4-0.7
		c4,2.5,8.1,4.7,11.9,7.3c1.9,1.3,3.9,1.1,5.7,0.6c1.6-0.4,1.4-2.2,1.3-3.6c0-0.5-0.7-1-0.5-1.5c1.6-4.6-0.6-7.5-3.4-11
		c-4.6-5.7-3-11.5,3.3-15.5c1.4-0.9,1.7-1.4,1.1-3.1c-3.6-9.8-4.5-20-2.4-30.3c1.1-5.6,2.7-6.1,7.3-2.6c3.3,2.5,6.5,5.2,9.1,8.4
		c1.7,2.1,3.7,3.1,6.4,3.4c5.4,0.6,10.9,1.3,16.3,2.2c3.1,0.5,2.6-2.4,4.1-3.8c2.8,2.7,5.7,5.4,8.5,8.1c-0.1,0.2-0.2,0.4-0.2,0.4
		c-4.9,0.4-6.2,3.4-6.5,7.9c-0.3,4.9-1.2,9.8-2,14.7c-0.2,1.2,0.4,1.9,1,2.7c2.7,3.8,5.2,7.7,7.4,11.9c0.5,1,1,2.1,1.4,3.2
		c0.9,2.6,0.4,3.4-2.3,3.8c-6.3,0.9-12.3-0.6-18.3-2.5c-5.9-1.9-11.2-4.8-16.1-8.5c-0.4-0.3-0.9-0.7-1.3-0.9
		c-0.1-0.1-0.3,0.1-0.6,0.1c1.3,3.3,2.6,6.6,3.8,9.9c0.5,1.5,1.3,2.1,2.9,2c4.5-0.1,4.5,0,4.5,4.6c0,2.9,0.2,5.8,0,8.7
		c-0.4,5.6,0.5,10.9,3.2,15.8c0.9,1.5,0.8,2.6-1.1,3.3c-1.3,0.5-2,1.4-2,3.1c0,15.5,0,31,0.9,46.5c0.1,1.2-0.2,2.3,1.7,2.4
		c1.3,0,1.8-0.3,1.6-1.6c-0.2-0.9-0.2-1.8-0.2-2.7c-0.2-3.6-0.4-7,1.6-10.4c1.7-2.9,2.1-6.5,2-9.9c-0.1-6.4,0.2-12.8,0.5-19.2
		c0.1-1.6,0.5-2,2-1.8c3.1,0.4,6.3,0.7,9.4,1.1c1.4,0.2,2.1-0.3,2.8-1.6c2.7-4.4,2.5-9.1,1.8-13.9c-0.6-3.8,0.2-5.4,2.9-5.9
		c2.7-0.6,6.2,1.5,6.9,4.3c0.5,1.8,0.7,3.7,0.3,5.6c-0.3,1.6,0,2.3,1.9,2.4c6.7,0.3,8.6,2.8,7.6,10.2c-0.2,1.4,0.1,1.6,1.3,1.7
		c1.9,0.1,3.7,0.3,5.9,0.6c-0.4-2-1.7-3.6-0.7-5.7c0.5-1,0.8-1.5,1.9-1.3c1.8,0.4,1.8-0.6,2.2-2c2-7.4-0.2-14.4-1.4-21.6
		c-0.3-1.7-1.4-1.2-2.5-1c-4.8,0.7-9.7,1.1-14.5,0.9c-0.9,0-2.2,0.4-2.7-0.7c-0.6-1.2,0.2-2.3,0.8-3.2c3.8-5.3,9-8.5,15.2-10
		c7.3-1.8,14.1-0.4,20.5,3.5c0.5,0.3,0.9,0.6,1.3,0.9c0.9,0.9,2.5,1.7,2.2,3.2c-0.3,1.4-2,1.5-3.1,1.8c-4.2,1-8.4,1.9-12.6,2.7
		c-1.5,0.3-1.7,0.7-1.4,2.1c1.6,7.2,2.8,14.5,1.4,21.9c-0.2,1.1-0.3,1.9,1.4,2.2c2,0.3,2.1,2.1,1.6,3.8c-0.4,1.2-1.1,2.2-1.8,3.5
		c5.8,0.6,11.3,1.5,16.8,1.8c3,0.1,3.8,1.3,4.3,4c2.3,11.7,4.8,23.3,7.3,35.6c2.5-3.6,4.8-6.9,7.1-10.1c0.1,0.1,0.3,0.1,0.4,0.2
		c-0.8,3.8-1.6,7.5-2.4,11.3c-0.1,0.7-0.9,1.4,0.3,2c1,0.5,1.7,0.6,2.7-0.1c2.8-2.2,5.7-4.4,8.9-6.3c-1.5,2.5-3,4.9-4.4,7.4
		c-0.3,0.6-1.5,1.2-0.5,2c1.1,0.8,1.7,0,2.4-0.9c4-5.5,8-11.1,12.1-16.6c0.5-0.6,1-1.2,1.9-1.6c-2.8,6.7-5.6,13.3-8.6,20.5
		c4-0.4,4.8-4.2,7.5-6.1c0,1.4,0.1,2.5,0,3.7c-0.1,1.6,0.8,1.7,2,2.5c4.1,2.9,6.6-1.1,9.8-1.7c0.2,0,0.3,0,0.9,0.1
		c-2,1.9-3.9,3.7-6.3,6c3.6-0.7,4.4,1.1,4.7,3.6c0.2,1.4,1.6,0.9,2.5,0.9c1.9,0,3.5-0.1,3.8,2.5c0.3,2.1,1.4,0.6,2,0.1
		c3.6-2.8,7.1-5.7,11.1-8.3c-2.6,4-5.2,8-8,12.2c2.9,0.6,5.5,1.1,8.1,1.8c0.9,0.2,1.3,0,1.6-0.8c2.8-6.8,5.7-13.6,8.6-20.3
		c0.6-1.5-0.4-1.4-1.2-1.7c-2.2-0.9-4.6-1.5-4-4.8c-0.2-0.5-0.5-1,0.4-1.1c0.3,0.9,0.6,2,1.5,2.5c1.3,0.7,3.2,2,4.2,1.1
		c1.2-1,1.6-3.1,1.3-5c-1-6-2.1-12.1-1.9-18.2c0.1-3.3,0.5-6.6,0.9-9.9c0.2-1.6-0.4-2.4-1.7-3.2c-1.8-1.2-4.7-0.7-5.5-3.6
		c-0.2-0.6-1.7,0.2-2.4-0.5c-0.3-1.1,0.8-0.7,1.1-1c1.1-0.4,1.8-0.9,1.7-2.3c-0.2-1.5,0-3.1,0-4.7c-1-0.2-1.2,1.5-2.2,0.8
		c-0.8-0.6-0.6-1.4-0.6-2.2c-0.1-1.5-0.2-3.1-0.3-4.6c0-0.1-0.1-0.2-0.1-0.3c-0.8-0.1-0.7,0.7-1,1c-0.9,0.9-1.7,2.1-3.1,1.8
		c-1.3-0.3-1.1-1.7-1.5-2.6c-0.4-1.1-0.7-2.2-1.1-3.4c-1.3,1.1-1.8,3.3-4,3c-2.1-0.3-1.7-2.7-3-3.8c-0.2-0.2-0.3-0.1-0.3,0.1
		c-0.1,1.8-0.6,3.5-1.9,4.9c-0.7,0.8-0.7,0.7-4.3-1.9c0.1,1.3,0.2,2.4,0.3,3.6c0,1.6-0.5,2.6-2.3,1.7c-0.9-0.4-1.1-0.3-1.5,0.7
		c-0.9,2.5-1.5,2.6-3.4,0.6c-4.9-5.4-5.9-11.8-4.5-18.7c1.6-8,5.8-14.4,13.2-18.4c4.8-2.6,9.2-6.1,13.3-9.7
		c3.1-2.7,6.7-3.3,10.4-3.9c3.4-0.6,6.4-2.3,9.9-2.6c5.3-0.5,9.9,1.2,14.4,3.7c7.1,3.9,13.4,8.7,18.2,15.4c2.2,3,4.7,5.9,7.3,8.7
		c3.8,4.1,6.2,9,8.7,13.9c1.5,2.9,1.3,5.7,0.4,8.6c-1.4,4.6-3.9,8.4-7.1,11.9c-1.4,1.5-1.9,1.1-2.4-0.6c-0.2-0.9-0.5-1.8-0.8-3.1
		c-0.6,1.7-1,3.1-1.6,4.5c-0.4,0.8-0.1,2.2-1.6,2.1c-1.4-0.1-1.3-1.4-1.7-2.8c-1,1.3-1.8,2.4-2.7,3.7c-2-1.6-2.1-3.6-1.2-6
		c-1.7,0.4-2.4,2.3-3.8,2.1c-1.7-0.2-1.2-2.2-1.9-3.3c-1.4,1.6-1.3,4.6-4.1,4.9c-1.4,0.1-1.3-1.5-1.9-2.2c-1.7,1.5-2.5,3.8-4.5,4.9
		c-2.9,1.6-4.2,1-4.5-2.4c-1.3,0-2.1,1-2.9,1.7c-1.9,1.4-2.8,0.6-3.2-1.3c-0.2-1.2-0.3-2.5-0.4-3.8c-1.9,0.1-2.7,1-2.7,3.1
		c-0.1,4.7-0.4,9.4-0.7,14c-0.4,6.4,1.4,12.3,4.1,17.9c0.5,1.1,1.2,2.2,1.2,3.5c1.2,0,2.1-0.7,3-1.2c2.2-0.6,3.9,0.9,5.8,1.5
		c1.7,0.5,2.5,0.1,2.7-2.1c-1.6,1.3-2.9,1.6-4.1,0c-0.6-0.7-1.1,0-1.6,0.2c-0.9,0.4-1.7,0.5-2.2-0.7c0-0.5,0-1.1,0-1.8
		c-0.9,0.6-1,1.9-2,1.7c-1.1-0.3-1.3-1.4-1.4-2.4c-0.8-4.2-0.8-8.4,0.8-12.5c2-5.2,6.6-6.6,11.6-7.6c10.6-2.2,17.6,2.9,23.1,11.2
		c2.3,3.5,2.3,7.1,0.3,10.7c-1.7,3.1-4.1,5.7-7.3,7.4c-1,0.5-2.9,2.1-2.7-1c0-0.9-0.6-0.6-1.1-0.5c-0.8,0.1-1.6-0.3-1.7-1
		c-0.3-2.8-1.5-1.8-3-0.9c-1,0.7-2.5,1.9-2.5-0.9c0-0.8-0.6-0.8-1.1-0.5c-1.9,1.3-3.9,2.6-3.7,5.5c0.1,1.4,0.1,2.9,0,4.3
		c-0.1,2.1,0,3.7,2.4,5.1c4.2,2.5,3.9,11.4,0,14.4c-2.1,1.6-5.8,1.2-7.6-0.8c-4-4.5-2.6-11.8,2.8-14.5c0.1,0,0.2,0,0.3-0.1
		c1-0.6,0.8-8.8-0.2-9.4c-3.3-2.1-8.7-1.4-11.5,1.5c-0.3,0.4-0.5,0.9-0.6,1.4c-1.6,7.5-3.3,15.1-4.1,22.8c-0.2,1.7,0.5,2.2,1.9,2.5
		c1.8,0.4,3.6,1.1,5.5,1.2c3.7,0.3,5.9,2.2,7.6,5.4c1.8,3.5,4.1,6.8,6,10.2c0.8,1.4,1.7,2,3.4,1.8c13.4-1.1,26.8-2.1,40.1-3.2
		c11.7-0.9,23.3-1.8,35-2.7c11.9-0.9,23.7-1.8,35.6-2.8c0.9-0.1,1.8,0,2.7-0.1c0,79.9,0,159.8,0,239.7c-2.5,1.3-5.2,0.4-7.7,0.1
		c-21.7-2.6-43.4-4.7-65.1-6.7c-14.1-1.3-28.2-2.4-42.3-3.5c-13.2-1.1-26.4-2.1-39.6-3c-9.9-0.7-19.8-1.3-29.7-1.9
		c-11.2-0.7-22.5-1.1-33.7-2c-3.8-0.3-7.6-0.4-11.3-0.5c-10.7-0.4-21.4-0.8-32.1-1.3c-12.5-0.5-25-0.5-37.5-1.5c-0.4,0-0.7,0-1.1,0
		c-13.3,0.3-26.5-0.4-39.7-0.7c-28.6-0.7-57.2-0.4-85.7-0.3c-11.1,0.1-22.2,0.1-33.2,0.5c-12.6,0.4-25.2,0.6-37.8,1.1
		c-13.9,0.5-27.9,1-41.8,1.7c-10.6,0.5-21.2,0.9-31.8,1.6c-13.2,0.8-26.4,1.6-39.6,2.5c-9.1,0.6-18.1,1.2-27.2,1.8
		c-10.2,0.7-20.5,1.6-30.7,2.4c-11,0.9-21.9,1.9-32.8,2.9c-13.8,1.3-27.6,2.6-41.4,4.1c-9.9,1.1-19.7,2.3-29.6,3.2
		c-1.1,0.1-2.2,0.3-3.1-0.5c0-79.5,0-159.1,0-238.6c6.6-0.1,13.1,0,19.7-0.2c21.4-0.5,42.8-1,64.3-1.5c10.9-0.3,21.8-0.5,32.7-1
		c2.5-0.1,3.2,0.4,2.8,3c-0.8,5.9-1.2,11.9-1.8,18.2c6.4-3.2,13-5.6,18.6-9.9c1.1-0.4,2.2,0.4,3.4-0.1c1.1-0.5,2.3-0.3,2-2.3
		c-0.3-1.6,1.4-2,2.6-2c1.4-0.1,2-0.1,1.5-1.8c-0.3-1.3,0.5-2.3,1.8-2.5c0.7-0.2,1.4-0.2,1.5-1.1c1.7-2.3,4.3-3.5,6.6-5
		c4.5-2.9,9-5.9,13.9-8.1c1.7-0.8,2-1.8,1.5-3.4c0.6-1.8,0.6-3.6-0.8-5.1c-0.7-0.7-0.4-1.6,0.2-2.2c0.7-0.7,1-1.6,1.8-2.2
		c0.4,0,0.7,0.1,1.1,0.4c0.4,0.3,0.7,0.6,0.8,1c0.5,2.4,1.5,1.4,2.6,0.5c-0.6-1-1.5-1.4-2.3-2c-0.6-0.4-1.3-1-0.9-1.7
		c0.3-0.6,1.1-0.4,1.7-0.3c0.4,0.1,0.9,0.3,1.2-0.1c-3.2-0.2-5.4-2.4-5-5.3c0.2-1.6-0.8-2.1-1.3-3.1c0-0.2-0.1-0.3-0.1-0.5
		c-0.3-0.4-0.2-0.8-0.1-1.2c0.1-0.6,0.4-1.2-0.7-0.9c-0.5-0.5-0.3-1.1-0.4-1.7c0.5-0.8,0.7-1.6,0.3-2.5c-0.4-1.3,0-2.3,1.4-2.7
		c1.2-0.2,1.7,0.7,1.7,1.6c0,1.3,0.7,0,0.9,0.3c0.3,0.7,0,1.5,0.7,2.1c0.4,1.4-0.2,2.6-0.5,4C174.5,226.3,175.9,226,176.4,227.2z"/>
	<path class="st1" d="M0,503.7c7.4-0.8,14.8-1.6,22.3-2.4c11.2-1.2,22.4-2.4,33.6-3.5c13-1.3,26-2.5,39-3.6c11.9-1,23.9-2,35.8-2.9
		c15-1.1,30-2.2,45-3.1c12.9-0.8,25.7-1.6,38.6-2.2c27.2-1.2,54.4-2.4,81.6-3.2c34.1-1,68.1-1.4,102.2-1.3c31,0.1,62,0.7,93,1.8
		c25.2,0.8,50.4,2,75.6,3.3c20.3,1,40.7,2.3,61,3.8c23.5,1.7,47.1,3.4,70.6,5.7c19.1,1.9,38.2,3.7,57.3,5.6
		c6.4,0.6,12.9,1.4,19.3,2.1c-0.2,0.3,0.5,1.1-0.5,1.1c-0.6,0-1.3,0-1.9,0c-256.7,0-513.3,0-770-0.1C1.7,504.7-0.1,506.1,0,503.7z"
		/>
	<path class="st0" d="M178.5,167.6c-2.8,1.4-5.6,2.7-8.7,4.3c5,2,9.9,1.6,15.2,2.4c-3.8,2.6-7.2,4.7-12,3.6c1.4,2,3.3,2.6,5.1,3.2
		c3.1,1.1,6.3,2,9.6,2.4c1.6,0.2,1.9,0.9,0.9,2.2c-1.7,2.3-4.1,2.5-7.2,2.2c2.7,3.3,6.4,3.2,9.8,4.4c-3.8,1.8-7.4,2.3-11.4,1.6
		c2.1,1.8,4.3,3.6,6.6,5.6c-1.8,1-3.7,0.3-5.8,1.1c3.3,2.7,7.1,2.9,11.2,3.6c-2.7,2.3-5.9,2.2-9,3.3c2.5,1.4,4.8,2.8,7.1,4.1
		c-2.3,2.2-4.5,2.3-11.1,0.5c-1,3.6-1,3.6-5.6,3.3c-2.9-1.5-5-1-6.5,1.6c-1.8,4.3-3.8,4.4-8.7,0.5c-2.1,3.8-2.8,4.4-5.7,5.5
		c0.4-0.7,0.7-1.3,0.9-1.9c0.4-0.8,0.8-1.8,0.3-2.6c-0.8-1.1-1.5,0.4-2.3,0.3c-0.5-0.1-1.1,0.3-1.6,0.3c-1.3,0-2.5,0-4.1,0
		c0.8-1.4,2.2-2.3,2.6-3.8c-0.4-0.9-1.5-0.1-2.1-0.8c1.1-2.3,3.5-4.1,3.2-7.5c-1.6,2.6-3.5,4.3-6.4,4.9c0-2.4,1.2-4.5,1.6-7.2
		c-1.5,0.8-2.7,1.4-4.5,2.4c1.3-2.7,2.8-4.7,3.6-7c1-3.1,0.9-3.3-2.3-3.1c-0.6,0.1-1.4,0.9-1.9-0.1c-0.3-0.6,0.4-1,0.7-1.6
		c0.6-1.4,1.3-2.7,2.1-4.3c-1.5-0.3-2.8-0.5-4.3-0.7c2.3-2.4,6-3.9,5.2-8.6c-2.4,3.4-5.4,3.7-8.9,3.4c1.6-2,3.7-3.2,4.9-5.2
		c0.4-0.8,1.2-1.6,0.5-2.5c-0.8-0.9-1.4,0.3-2.1,0.4c-1.1,0.3-2,0.3-3.5-0.2c3.7-2.7,6.9-5.3,7.8-10.2c-2.5,2-4.5,3.7-7.6,3.5
		c2.2-4.2,4.7-8.2,4.1-13.6c-1.5,2.1-3.2,3-5.7,3.3c3.1-3.6,5.2-7.2,5.1-11.8c-0.8-0.6-1.2,0.6-2.1,0.3c0.5-2.5,2.1-4.8,2.1-7.6
		c-1.4,0.2-1.7,1.8-3.3,1.7c1.7-7.2,3.5-14.3,5.3-21.8c7.2,6.1,14.2,12.1,21.3,18.2c-0.1,0.2-0.1,0.4-0.2,0.5
		c-2.3-0.5-4.5-1-6.8-1.5c3.3,5.5,9.3,6.4,14.7,8.5c-2.6,2.3-5.4,2.6-8.5,2.1c1.4,3.1,6.3,5.7,16,8.5c-1.9,2.3-4.4,2.9-7,3.4
		c-1.5-0.3-1.5-0.3-1.8,0.7c2,2.8,4.7,4.5,8.1,4.9C176.2,167.5,177.7,166,178.5,167.6z"/>
	<path class="st2" d="M105.6,200.8c-0.5,0.5-0.9,1-1.8,1.9c0.1-7.5,1.7-14.2,4.1-21.1c3,5.2,7.4,8.5,12.9,11.1
		c-1.4,0.8-2.8,0.3-3.7,1.4c3,1.3,6.1,2.5,9.3,3.8c-1.8,0.9-3.6,0.6-5.8,0.8c3.2,3.4,7.2,5.2,10.9,7.9c-2.2,1-4.2,1-7.1,0.6
		c4.2,3.3,8.7,3.7,13,5.1c-1.1,1.9-3,2.5-5.4,3c2.9,1.7,5.5,1.8,8.3,2.3c-1,1.9-2.4,3.2-4.6,3.8c2.1,1.6,4.8,1.6,7.1,2.8
		c-1.8,0.4-3.4,0.7-5.7,1.2c2.5,0.8,4.1,1.4,6.2,2.1c-2.1,1.1-3.9,2-5.9,3c2.5,1.6,4.9,0.4,7.4,0.4c-0.6,1.4-2.1,1.4-2.9,2.6
		c0.8,0.6,1.8,1.2,2.7,1.8c0.5,0.4,1.4,0.6,1.2,1.3c-0.2,0.5-0.9,0.8-1.5,1c-2.1,0.9-4.4-0.1-6.5,0.8c0,1.4-0.9,0.8-1.4,0.5
		c-2-1.2-1.9,0.2-1.7,1.4c0.3,3.4-0.3,4.1-3.8,4c-0.5-0.7-0.9-1.3-1.5-2.1c-0.9,0.6-1.7,1.2-2.6,1.8c-2.6,1.8-2.6,1.8-3.9-1.3
		c-1.4,1.6-2.7,3.1-4.4,5c-0.2-1.8-0.3-3.1-0.4-4.7c-1.7,1-3.2,1.8-4.9,2.7c-0.4-3.1,0.3-5.4,2-7.9c-1.8,0.4-3.4,0.7-5.1,1.1
		c-0.2-3.2,1.9-5.4,3.1-8.5c-1.6,1-2.7,1.6-4.3,2.6c1.3-2.9,2.3-5.4,3.5-8.1c-1.8,0.7-3.4,2.2-5.5,1.2c1.4-3.6,3.2-7,3.7-11
		c-1.7,0-2.8,1.5-4.6,1.7c1-2.9,2.4-5.6,2.9-9.1c-1.5,0.9-2.7,1.7-4.1,2.6c0.4-2.9,0.8-5.6,1.1-8.2
		C106.2,201.7,106.9,200.9,105.6,200.8z"/>
	<path class="st3" d="M131.1,244.5c2.2-0.6,4.1-1.4,3.4-4.4c-0.2-0.8-0.5-2,0.3-2.4c0.5-0.3,1.5,0.2,2.1,0.9
		c0.4,0.4,0.7,0.4,1.1-0.1c0.5,0.4,0.9,0.8,0,1c-0.8,0.1-1.7-0.1-3.1-0.2c1.6,2.7,2.9,5,4.3,7.3c1.5,0.1,0.4-1.2,0.9-1.6
		c0.1-0.8,0.2-1.6,0.3-2.6c1.8,0.7,3.8,0.6,4.8,2.6c0.3,0.7,0.8,0.5,1.3,0.2c0.5-0.3,1-0.6,0.6-1.2c-1.7-2.4,0.1-4.6,0.2-7.3
		c1.4,1.3,2.5,2.3,3.6,3.4c0.6,0.5,0.6,2.5,1.9,1.2c1.2-1.2,4.4-0.6,3.4-3.7c0-0.1,0-0.2,0-0.3c0.1-1.1-0.5-2.8,0.4-3.3
		c0.9-0.4,2.5,0.2,3.5,0.7c2.4,1.2,4.2,0.5,4.7-2.2c0.1-0.4,0.2-0.7,0.2-1.1c0-2.4,0.9-2.5,2.7-1.3c0.8,0.5,1.8,1.9,3.1,0.8
		c1.3-1-0.1-2-0.2-3.1c0-0.3,0-0.5,0-0.8c1.2,0.7,2,1.3,1.7,3.1c-0.5,2.6,2.1,4.7,5.6,5c-1,1.4-2.3,1-4,0.5c1.4,1.7,3.1,2.4,4.4,3.5
		c-0.3,1.7-2.3,1.4-3.2,2.5c-0.6,0.7-1-0.5-1-1c0.2-1-0.1-1.7-0.9-2.4c-0.6-0.9-0.4-2.1-1.1-2.9c0.4,0.8,0.9,1.5,0.4,2.4
		c-0.7,0.5,0.3,1.5-1.2,2.2c-2,0.9,1.5,2.3,0.5,3.8c2.3,1.3,0,2.2-0.3,3.3c-1.2,3-2.9,3.8-6,3.9c-2.4,0-4.7,1-6,3.3
		c-1.3,2.2-3.7,3.2-6,2.4c-0.5,3.2-2.7,4.5-5.7,3.4c0.5,1.2,1.6,2.1,1.5,3.5c0.3,0.9,1.6,2.1-0.9,1.6c-1.6-0.4-2.5,0.7-1.8,2.4
		c0.6,1.6,0.8,2.5-1.6,2c-1.5-0.3-3.4-0.1-2.5,2.4c0.4,1.3,0.1,1.8-1.4,1.6c-1.6-0.2-3.3,1.7-4.8-0.3c3.6-3,3.6-3.1,0.6-6.9
		c-0.9-1.1-1.3-3.6-3.8-1.9c-0.6,0.4-0.9-0.4-1.1-0.9c-0.2-0.5-0.8-1.2,0.1-1.6c0.9-0.4,1.3-0.9,0.4-1.5c-1-0.8-0.9-3-2.9-2.5
		c-0.8,0.2-1.3,0.2-1.7-0.6c-0.4-0.8-0.3-1.1,0.3-1.8c1.1-1.4,0.3-3.3,1.4-5.1c0.9,0.5,2,1,3.1,1.5c0.4,0.2,0.6,0.7,1.1,0.2
		c0.4-0.4,0.1-0.8,0.1-1.2C134.1,248.8,132.1,246.9,131.1,244.5z"/>
	<path class="st3" d="M214.8,226.7c0.9,1,2.1,1.8,1.2,3.4c-0.3,0.5-0.4,1.1-1,1.1c-0.1,0-0.4-0.1-0.4-0.3c-0.4-0.7,0.2-0.9,0.6-1.2
		c0.2-0.2,0.4-0.3,0.1-0.7c-0.4,0.1-0.8,0.2-1.2,0.4c-0.2-0.2-0.3-0.6-0.4-0.5c-0.2,0.3-0.3,0.7,0,1.1c-0.9,1.5-1.8,2.9-3.3,3.8
		c-1.4,1-2-0.3-2.8-1c0.2,1.4-0.7,2.2-1.9,2.5c-1.4,0.4-3,1.1-4.1-0.7c0,1.4-0.3,2.5-1.9,2.9c-1.4,0.3-2.6,0.7-4.2,0.1
		c-0.6-0.3-1.1,1.9-2.5,2.2c-1.8,0.4-3.5,0.3-5.2,2c-1.9,2-3.4,1.3-6-1.5c-0.1-0.5-0.7-1.2,0.1-1.3c2.2-0.3,1-0.9,0.3-1.5
		c-1.4-0.9-1.5-2.6-2.1-3.9c-0.4-0.9-0.7-1.9-2-1.5c-0.6-0.8-1.1-1.7-1.9-2.4c-1.2-1,0-1.4,0.3-2.1c0.5,0.2,0.4,1.3,1.4,0.9
		c0.7-0.3,0.8-0.8,0.6-1.5c-0.5-1.7,0.8-2.8,1.4-4.1c0.6-1.2,1.2,0.4,1.8,0.5c1.4,0.3,1.1,2.9,2.9,2.5c2.3-0.6-0.1-2.5,0.7-3.7
		c0.5-0.7,0.6-2.6,1.1-2.4c1.5,0.4,3.1,1,3.9,2.5c0.3,0.5,0.1,1.4,1.1,1c0.8-0.3,0.4-0.8,0.3-1.3c-0.6-1.9,1.1-2.9,1.6-4.3
		c0.3-0.7,0.8-0.2,1.2,0.1c1.2,0.9,1.9,2.2,2.9,3.5c-0.2-2.6,0.4-4.9,1.5-7.3c1.4,1.4,3,2.4,3.8,4.2c0.2,0.6,0.4,1,1.1,0.7
		c0.5-0.2,1.2-0.3,1.1-1c-0.4-1.9,0.5-4,1.7-4.3c1.4-0.3,2.8,1.6,3.7,3c0.7,0.3,1.4,0.7,2.2,0.9c1.7,0.4,2.5-0.1,2.6-1.9
		c0-0.8,0-1.6,0.7-2.2c0.7,0.1,1.4,0.1,2.1,0.2c-0.7,1.2,0.3,1.6,1,2c0.6,0.4,1.7,0.5,1.4,1.6c-0.3,1.2-1.4-0.1-1.9,0.6
		c-0.1-0.1-0.3-0.2-0.4-0.2c-0.1,0-0.2,0.1-0.2,0.1c0.2,0.3,0.4,0.1,0.6,0.1c-0.1,0.5,0.1,1.2-0.2,1.5c-1.9,2.2-1.9,2.1-2.2,5.8
		C216.1,226.1,215.7,226.7,214.8,226.7c-0.4-0.3-1-0.1-1.5-0.3C213.8,226.7,214.4,226.4,214.8,226.7z"/>
	<path class="st3" d="M166.7,217c-0.2-0.1-0.9,0.1-0.6-0.5c0.8-1.9,2.7-2.2,4.3-2.9c1.5-0.7,2,0.9,2.8,1.9c-0.7,0.3-0.7,0.9-0.6,1.5
		c-0.5,0.3-1.4-0.2-1.5,0.8c0,0.1,0,0.2-0.1,0.3c-1.2,0.8-1.2,1.9-0.5,2.9c0.8,1.4-0.1,1.7-1.1,2c-0.5-1.7-1.1-3.3-1.6-5
		C167.5,217.3,167.4,216.9,166.7,217z"/>
	<path class="st0" d="M215.9,213.6c0,0.6,0,1.3,0,1.9c0,1.3-0.1,3-1.4,3.1c-1.3,0-3.4,0.3-4.1-1.8c1.4-0.7,1.1-2.4,2.1-3.5
		C214.1,211.4,214.9,211.9,215.9,213.6z"/>
	<path class="st4" d="M646.7,219.5c1.9,1.3,2.6-0.4,3.5-1.6c1.8,3.6,2.1,3.7,4.4,0.8c0.8,0.5,0.5,1.3,0.6,1.9c0.1,2.3-1,3-3.1,2.3
		c-2-0.7-3.8-2-6-2.3C646.3,220.3,646.5,219.9,646.7,219.5z"/>
	<path class="st3" d="M176.4,227.2c-3.8-1.1-3.8-1.1-2.1-5.5C175.3,223.4,175.9,225.3,176.4,227.2z"/>
	<path class="st3" d="M173.6,219.7c-0.2,0.4-0.5,0.7-0.7,1.1c-1-0.7-0.3-2.6-1.9-2.7l0,0c-0.1-1.4-0.1-1.4,1.8-0.6
		C173,218.2,173.3,218.9,173.6,219.7z"/>
	<path class="st5" d="M625,183.5c-0.4,0.3-0.7,0.7-1.1,1c-1.2-1-2-2.2-3-3.9C622.8,181.4,623.2,183.4,625,183.5z"/>
	<path class="st6" d="M140,245.1c0,1,0,2,0.9,3c-1.6,0.2-1.5-0.8-1.8-1.4C139.4,246.1,139.7,245.6,140,245.1z"/>
	<path class="st0" d="M172.7,217.4c-0.5,0.3-1.6-0.9-1.8,0.6c-0.7-0.5-0.8-1.4-0.2-1.8c0.7-0.6,1.1,0.6,1.8,0.7
		C172.6,217.1,172.7,217.3,172.7,217.4z"/>
	<path class="st7" d="M178.5,167.6c-0.9-0.8-2.3,0-3.2-0.9c1.1,0,2.3-0.3,3.4-0.1C180,167,178.9,167.3,178.5,167.6z"/>
	<path class="st8" d="M219.1,199.6c0.4-0.5,0.9-1.1,1.6-2c0.1,1.6-0.9,2.5-0.5,3.6C219.8,200.7,219.5,200.2,219.1,199.6z"/>
	<path class="st9" d="M226.8,194.3c-0.5,0.7-0.9,1.5-2.3,1.6c0.6-0.9,1.1-1.6,1.6-2.3C226.3,193.8,226.6,194,226.8,194.3z"/>
	<path class="st3" d="M169.7,224.6c2.8-0.2,0.1,1.5,0.8,2.1C169.8,226.2,170,225.3,169.7,224.6z"/>
	<path class="st10" d="M167.2,161.8c-0.3-0.3-0.8-0.6-0.8-0.9c0-0.5,0.5-0.3,0.8-0.3c0.6,0.1,1.2,0.3,1.8,0.5
		C168.4,161.4,167.6,161.1,167.2,161.8z"/>
	<path class="st11" d="M627.5,221.3c-0.1,0.4-0.3,0.7-0.4,1.1c-0.7-0.6-0.4-1.5-0.5-2.2c-0.1-0.5,0.1-0.7,0.6-0.5
		C627.2,220.3,627.4,220.8,627.5,221.3z"/>
	<path class="st12" d="M226.7,203.4c0.6-0.6,1.2-0.9,2.2-1c-0.4,0.8-1,1.3-1.6,1.6C227.1,203.8,226.9,203.6,226.7,203.4z"/>
	<path class="st13" d="M235.4,200.5c-0.6,0.5-1.1,1.1-2.2,1.2c0.5-0.8,0.9-1.3,1.6-1.6C235.1,200.1,235.3,200.2,235.4,200.5z"/>
	<path class="st14" d="M105.6,200.8c0.2-0.3,0.4-0.7,0.6-0.8c0.5-0.1,0.5,0.4,0.5,0.7c-0.1,0.6-0.4,1.1-0.5,1.7
		C105.7,201.9,106.3,201.1,105.6,200.8z"/>
	<path class="st15" d="M627.1,219.7c-0.2,0.2-0.4,0.3-0.6,0.5c-0.4-0.5-0.8-1.1,0-1.4C627.1,218.7,627.1,219.3,627.1,219.7z"/>
	<path class="st16" d="M449.1,10.7c-0.4-0.2-0.7-0.4-1.1-0.5c0.6-0.5,1.3-0.8,2-0.2C450.1,10.2,449.5,10.6,449.1,10.7z"/>
	<path class="st17" d="M149.3,264c-1.2-1.6-2.3-3.2-3-5.4c0.7,0.1,1,0.1,1.1,0.2c1.9,2,3.1,2.1,5.2,0.2c0.8-0.7,0.5-1.2,0-1.8
		c-0.2-0.3-0.7-0.8-0.1-1.1c0.5-0.3,1.1-0.4,1.4,0.1c0.5,1,1.2,1.5,2,0.5c0.9-1,3.2-0.5,2.7-2.7c-0.1-0.4-0.1-0.7,0.3-0.9
		c2.1-1,4.7-3.3,6.2-2.7c3.7,1.3,4.3-1.8,6.3-3c1.2,1.5,1.3,2.5-0.8,3.5C163.2,254.6,156.1,259.2,149.3,264z"/>
	<path class="st18" d="M487.1,95.6c-0.1,1.2,0,2.1-1.5,2.4c-7,1.5-7,1.6-11.4-4.8c5.1,0,10.3,0,15.6,0c0.8,0,1.4,0.6,1.5,1.3
		c0.1,1-1,1.1-1.5,1.7C488.6,97.4,488.2,95.7,487.1,95.6z"/>
	<path class="st19" d="M181.8,240.3c0.5,0.1,1.3-0.5,1.5,0.1c0.9,3.5,2.9,1.3,4.5,0.9c2.4-0.6,0.2-2,0.5-3c0.1-0.1,0.2-0.3,0.5-0.6
		c1.2,3.4,3.3,1.3,5.1,1c1.3-0.2,0.4-1.1,0.4-1.7c0-0.6-0.4-1.3,0.4-1.6c0.9-0.3,0.9,0.5,1.2,1.1c1,2.4,2.6,0.3,3.8,0.3
		c1.1,0,1.7-0.7,1.1-2c-0.2-0.5-0.9-1.4,0.2-1.8c1.1-0.4,0.8,0.7,1,1.2c1,2.6,2.5,0.2,3.8,0.3c1,0.1,1.9-0.6,1.3-1.9
		c-0.3-0.7-0.9-1.7,0.2-2c1.1-0.2,1,1,1.1,1.7c0.1,1.5,1.2,1.3,2.1,1.4c0.2,1.5-1,1.4-1.9,1.7c-7.7,2.5-15.3,5.1-22.7,8.3
		c-3,1.3-3.1,1.3-3.9-1.8C181.8,241.4,181.9,240.8,181.8,240.3z"/>
	<path class="st20" d="M491.2,114.5c-0.4-0.3-0.5-0.3-0.5-0.4c-4.2-5.2-4.4-5.9-0.7-11.5c0.8-1.2,2-2.2,2.6-3.7
		c0.2-0.5,0.8-1.4,1.6-1c0.8,0.4,0.8,1.2,0.6,2.1C493.5,104.9,492.4,109.6,491.2,114.5z"/>
	<path class="st21" d="M454.9,128.4c-5.5-5.6-4.6-10.7,1.8-12.9C456.5,119.8,454.9,123.7,454.9,128.4z"/>
	<path class="st22" d="M519.9,181.8c-1.8,0.1-3.5,0.1-5.1-0.4c-1-0.3-2.9,0.8-2.9-1.1c0.1-1.5,0-3.7,1.9-4.3c1.7-0.5,3.4,0.2,4.2,2
		C518.6,179.1,519.2,180.4,519.9,181.8z"/>
	<path class="st23" d="M500.5,179.9c2-1.7,3.1-3.7,5.3-4.5c1.5-0.6,2.9-0.6,2.9,1.6c0,0.7,0.3,1.4,0.4,2.1c0.3,1.2,0.2,1.9-1.4,1.6
		C505.5,180.4,503.2,180.2,500.5,179.9z"/>
	<path class="st24" d="M484.5,105.8c-3.5-3.4-3.5-3.4,0.6-5.5c0.6-0.3,1.3-0.6,1.9-1c0.7-0.5,1.1-0.1,1.6,0.4c0.7,0.6,0.4,1-0.1,1.5
		C487.2,102.7,485.9,104.2,484.5,105.8z"/>
	<path class="st25" d="M246.6,151c-2.2-2.3-4.1-4.3-6-6.2C246.1,143.1,246.9,143.9,246.6,151z"/>
	<path class="st26" d="M633.2,186c-1.9-0.3-3.9-0.4-4.3-1.6c-0.6-1.7-0.7-3.9,0.3-5.7c0.3-0.5,0.6-1,1.2-0.7
		c0.5,0.3,1.3,0.6,0.8,1.4C629.5,182.1,631.4,183.9,633.2,186z"/>
	<path class="st27" d="M653.1,243.2c0.2-1.2,0.3-3,1.6-3c1.5,0,1.7,1.8,1.7,3.1c0,1.3-0.2,3.2-1.6,3.1
		C653.3,246.5,653.2,244.6,653.1,243.2z"/>
	<path class="st28" d="M178,232.1c0.6-1.5,1.4-1.9,2.1-0.2c0.8,1.8,1.3,3.7,2,5.5c-0.6,0.4-1.2,0.7-1.9,0.6
		C178.6,236.4,178.8,234,178,232.1L178,232.1z"/>
	<path class="st29" d="M460.7,129.2c-0.8-2.5-1.3-4.4-2-6.4C462.1,123.2,462.1,123.2,460.7,129.2z"/>
	<path class="st3" d="M178,232.1c1.1,1.9,1.7,3.9,2.2,5.9c-0.8-0.1-1.4,0.8-2.5,0.3C179.2,236.3,177.7,234.2,178,232.1z"/>
	<path class="st30" d="M172.5,238c-0.4-1-0.9-1.9-1.3-2.9c-0.2-0.5-0.6-1,0.1-1.4c0.8-0.3,1.1,0.2,1.3,0.9c0.3,1.3,0.9,2.6,0.6,4
		C172.7,238.6,172.6,238.3,172.5,238z"/>
	<path class="st31" d="M213.7,229.9c-1-0.3-1.1-1-0.6-1.8c0.2-0.4,0.8-0.6,1.1-0.3c0.4,0.4-0.2,1-0.1,1.5
		C214,229.5,213.9,229.7,213.7,229.9z"/>
	<path class="st32" d="M164,247.9c-0.7,0.3-1.1,0.5-1.6,0.8c-6,2.7-5.9,2.7-8.7-3.2c-0.4-0.9-0.2-1.3,0.6-1.9c4-2.8,4-2.9,7,0.9
		C162.2,245.6,163.1,246.7,164,247.9z"/>
	<path class="st33" d="M170.1,244.5c0.2,0.5-0.3,0.6-0.6,0.8c-0.4,0.4-0.8,0.2-1.1-0.2c-1.6-2-3.2-4.1-4.9-6.1
		c-0.7-0.8,0.2-1.2,0.6-1.4c0.6-0.3,1.5-1.5,1.9-0.7C167.7,239.3,168.8,242,170.1,244.5z"/>
	<path class="st34" d="M148.1,247.2c0.8,0,1,0.5,1.3,1c0.7,1.3,1.5,2.6,2.2,3.9c0.3,0.5,0.8,1.1-0.1,1.5c-0.5,0.3-1,0.1-1.3-0.5
		c-0.9-1.5-1.9-3-2.8-4.5C146.7,247.7,147.9,247.7,148.1,247.2z"/>
	<path class="st35" d="M139.2,258.7c-0.2,0.3-0.2,0.6-0.4,0.7c-0.3,0.3-0.7,0.1-0.9-0.2c-0.9-1.1-1.7-2.3-2.5-3.4
		c-0.2-0.3-0.2-0.7,0.2-0.9c0.2-0.1,0.6-0.1,0.7,0C137.2,256.2,138.2,257.4,139.2,258.7z"/>
	<path class="st36" d="M142.1,251c1.6,1.4,2.8,3.1,3.3,5.3C143.5,255.1,142.9,253,142.1,251z"/>
	<path class="st15" d="M141.9,264.5c-0.1-0.1-0.1-0.1-0.2-0.2c-0.5-0.9-1.7-1.3-1.5-2.6c0-0.1,0.3-0.3,0.4-0.3
		c1.1,0.4,1.4,1.4,1.8,2.4C142.7,264.5,142.3,264.6,141.9,264.5z"/>
	<path class="st37" d="M141.9,264.5c0.2-0.2,0.3-0.4,0.5-0.6c0.5,0.7,1.3,1.2,1.1,2.3C142.4,266,142.2,265.2,141.9,264.5z"/>
	<path class="st38" d="M207.1,227c0.2,0.6-0.2,0.7-0.6,0.9c-0.8,0.4-0.9-0.3-1-0.7c-0.5-1.4-0.9-2.9-1.4-4.3
		c-0.3-0.8,0.1-1.1,0.7-1.4c0.9-0.4,1.1,0.3,1.3,0.8C206.5,223.9,206.8,225.4,207.1,227z"/>
	<path class="st39" d="M188.3,234.5c0,0.4-0.1,0.7-0.5,0.8c-0.5,0.1-0.9-0.1-1-0.6c-0.6-1.7-1.1-3.4-1.8-5.1
		c-0.4-0.8,0.3-0.9,0.7-1.1c0.6-0.4,1-0.1,1.2,0.5C187.2,230.9,187.8,232.7,188.3,234.5z"/>
	<path class="st40" d="M192.3,226.1c0.5,0.1,0.7,0.4,0.9,0.9c0.4,1.6,0.8,3.1,1.3,4.6c0.2,0.7,0.1,1-0.5,1.2c-0.9,0.4-0.8-0.3-1-0.8
		c-0.5-1.6-1-3.3-1.4-4.9C191.4,226.6,191.6,226.2,192.3,226.1z"/>
	<path class="st41" d="M210.8,220.3c-0.1-0.6,0-1.1,0.7-1.2c0.6-0.1,0.8,0.4,0.9,0.8c0.4,1.4,0.8,2.9,1.2,4.3c0.2,0.7-0.2,1-0.7,1.2
		c-0.8,0.4-0.9-0.3-1-0.7C211.6,223.2,211.2,221.7,210.8,220.3z"/>
	<path class="st42" d="M200.7,229.4c0,0.6-0.1,0.9-0.5,1c-0.4,0.1-0.7-0.1-0.8-0.5c-0.2-0.3-0.2-0.7-0.3-1c-0.3-1.6-1.3-3.1-1-4.8
		c0-0.1,0.6-0.3,0.7-0.2C200,225.6,199.8,227.8,200.7,229.4z"/>
	<path class="st43" d="M218.5,218c-0.2,0.3-0.5,0.6-0.7,1c-0.5-0.6-0.7-1.3-0.7-2c0-0.6,0.6-0.6,1-0.5
		C219.2,216.5,218.3,217.4,218.5,218L218.5,218z"/>
	<path class="st0" d="M215.2,227c-1.5-0.1-2.4-0.2-3.3-0.2C212.9,226.2,213.9,225.8,215.2,227z"/>
</g>
<g>
	<path class="st44" d="M16.9,484.7c0,0-0.1-58.9-0.3-77.3c-0.2-15.9-0.4-34.7-0.6-56.5c-0.3-21.8-0.6-47.2-1.2-73.5
		c6.9,0.2,14.7,0.2,23.5,0c7.6,0,16.6,0.6,26.9,0.5c10.3-0.2,22,0.3,34.9-0.1c-0.2,3.3-0.3,7.2-0.3,11.6c-0.2,4-0.3,8.8-0.3,14.5
		v20.2c-2.4-0.2-5.4-0.3-9.1-0.3c-3.1,0-7.1,0-11.9,0.1c-4.8,0.1-10.5,0.2-17.1,0.4v9.6c0,3.1,0,6.9-0.1,11.4
		c-0.1,4.5,0,5.6,0.1,11.3h11.3c6,0,7.9-0.2,17.9-0.5v16.7c0,4-0.7,15.7-0.7,21.3c0,5.6,0.1-0.5,0.3,6c-2.2-0.2-5-0.3-8.3-0.3h-6.3
		c-4.3,0-7.3,0.1-13.4,0.3c0.2,7.8,0.3,21.2,0.4,29.9c0.1,8.6,0.3,35.4,0.6,45L16.9,484.7z"/>
	<path class="st44" d="M152.3,430.9c1.1,0,2.1-0.6,3-1.7c0.9-1.1,1.6-3.5,2.1-7.2c0.6-3.6,1-9.1,1.2-16.2c0.2-7.1,0.4-16.8,0.4-29.1
		c0-11.6-0.1-20.9-0.4-27.9c-0.2-7-0.6-12.3-1.2-16c-0.6-3.7-1.3-6.1-2.3-7.3c-1-1.2-2.1-1.8-3.3-1.8c-1.6,0-2.9,0.7-3.8,2
		c-1,1.4-1.7,4-2.1,8c-0.5,4-0.8,9.5-1,16.7c-0.2,7.2-0.2,16.4-0.2,27.9c0,11.6,0.2,20.9,0.5,27.8c0.3,6.9,0.8,12.2,1.3,15.8
		c0.6,3.7,1.3,6,2.3,7.2C149.7,430.4,150.9,430.9,152.3,430.9 M151.9,463.6c-9.9,0-18.2-1.8-25-5.5c-6.8-3.7-12.4-9.1-16.7-16.2
		c-4.3-7.2-7.4-16-9.4-26.5c-2-10.5-3-22.6-3-36.5c0-13.2,0.8-25.2,2.4-36.1c1.6-10.9,4.4-20.3,8.5-28.1c4.1-7.9,9.5-14,16.4-18.4
		c6.9-4.4,15.8-6.6,26.6-6.6c11,0,20,2,27.1,6.1c7.1,4.1,12.6,9.9,16.7,17.5c4.1,7.6,6.8,16.9,8.3,27.9c1.5,11,2.3,23.4,2.3,37.4
		c-0.2,15.6-1.3,28.8-3.6,39.6c-2.2,10.8-5.5,19.5-9.9,26.2c-4.4,6.7-9.9,11.5-16.7,14.5C169.1,462.1,161.1,463.6,151.9,463.6"/>
	<path class="st44" d="M255.9,376.4c4.8-0.1,8.6-1.9,11.3-5.4c2.7-3.4,4.1-9.2,4.1-17.2c0-7.9-1.3-14.1-3.8-18.7
		c-2.6-4.5-6.7-6.6-12.3-6.2c0,6,0,11.7,0.1,17.3c0.1,5.6,0.2,10.6,0.4,15.1C255.8,366.6,255.9,371.6,255.9,376.4 M275.5,466.5
		l-4.2-16.9c-1.3-5.5-3-9.9-5-17.6c-2-7.7-4.3-16.3-6.9-25.9c-0.2,0.2-0.5,0.2-1,0.2h-2.5l1,53.3H244h-14.6
		c-5.6,0-11.7,0.1-18.4,0.2c0.2-13.2,0.3-28.5,0.5-45.9c0.2-14.9,0.3-32.7,0.4-53.6c0.1-20.8,0.9-42.9,0.9-69.2
		c7.4-1.3,34.2-0.6,40-0.6c23,0,33.6,1.4,44.3,11.9c10.7,10.5,20.4,24.8,20.4,45.5c0,10.9-1.1,20-4.9,27.3
		c-3.7,7.3-8.8,13.2-15.3,17.9c1,3.3,3.5,11,7.4,22.9c4,12,9.8,26.3,17.4,47.3c-3.5,0.2-7.5,0.4-12.2,0.7c-4,0.3-8.8,0.7-14.6,1.1
		C289.5,465.8,282.9,466.2,275.5,466.5"/>
	<path class="st44" d="M415.5,457.1c0.2-12.6,0.3-27.2,0.3-44c0-14.4-0.1-31.8-0.3-52.1c-0.2-20.3,0.3-39.5,0-65.3
		c3.7-0.2,33.5-6.2,39.7-6.6c2.2,6.6,5.5,15,8.5,23.6c2.5,7.5,5.6,16.5,9.3,27.2c3.7,10.7,7.9,22.8,12.8,36.4
		c-0.5-10.4-1.3-23.5-2.3-39.3c-1-15.9-2.4-27.8-4.3-50c3.2,0.2,34.5,0.2,40.8,0c0.2,13.9-0.6,144.4,0.2,172.9
		c-2.7,0.3-27.9,3.1-34.9,3.6c-2.5-7.1-5.3-15.3-8.5-24.4c-2.8-7.8-6.2-14.2-10-24.8c-3.8-10.6-8.1-22.4-12.8-35.3
		c0.3,8.8,0.7,19.6,1.3,32.3c0.5,12.7,1.3,28.2,2.5,46.3c-3.3,0-7.2-0.1-11.5-0.3c-3.7-0.2-8.1-0.3-13.4-0.4
		C427.7,457.2,421.9,457.1,415.5,457.1"/>
	<path class="st44" d="M530.6,466.4v-52.3c0-16.2-0.1-35.2-0.3-56.9c-0.2-21.7-0.4-36-0.8-61.3h11.9h14.6c5.8,0,12.5-0.1,20.3-0.3
		c0,17.1,0.1,26.2,0.3,45.8c0.2,16.7,0.3,35.9,0.4,57.4c0.1,21.6,0.3,44.1,0.6,67.5h-11.6H530.6z"/>
	<path class="st44" d="M580.7,346.8c0.2-2.4,0.2-5.7,0.2-9.8c0-3.4,0-8-0.1-13.7c-0.1-5.7-0.2-12.8-0.4-21.2c0,0,79.4-2.8,95.2-3.2
		c-0.2,3.6-0.3,9.8-0.5,14.3c-0.2,4-0.3,8.8-0.4,14.4c-0.1,5.6,0,7.7,0.1,15h-6.8c-2.3,0-5,0-8.1-0.1c-3.1-0.1-6.7-0.1-10.8-0.1
		v24.3c0,9,0,23.3,0.1,34.4c0.1,11.1,0.2,11.3,0.4,24.7c0.2,13.5,0.3,28.5,0.5,45c-3.1-0.2-6.7-0.3-10.9-0.3c-3.7,0-8.3,0-13.7,0.1
		c-5.4,0.1-11.7,0.2-19,0.4c0.2-10.7,0.2-23,0.2-37c0-11.9,0-14.1-0.1-30.8c-0.1-16.7-0.2-35.6-0.4-56.6L580.7,346.8z"/>
	<path class="st44" d="M318.1,334.3c0.2-2.4,0.3-5.7,0.3-9.8c0-3.4,0-8-0.1-13.7c-0.1-5.7-0.2-12.8-0.4-21.2c0,0,76.7,5.3,94.3,7.8
		c-0.2,3.6-0.3,12-0.4,17.7c-0.1,5.6,0,19.9,0.1,27.1h-7.2c-2.4,0-1.7,0-5.1-0.1c-3.4-0.1-7.2-0.1-11.5-0.1v24.3
		c0,9,0,11.2,0.1,22.3c0.1,11.1,0.2,12.7,0.4,26.2c0.2,13.4,0.3,28.4,0.5,45c-3.3-0.2-7.2-0.3-11.6-0.3c-4,0-8.8,0-14.6,0.1
		c-5.8,0.1-12.5,0.2-20.3,0.4c0.2-10.7,0.3-23,0.3-37c0-11.9,0-15.5-0.1-32.2c-0.1-16.7-0.2-35.6-0.4-56.6L318.1,334.3z"/>
	<path class="st44" d="M681.4,473.6c-0.2-15,1.8-35.4,1.7-54c-0.2-16-0.4-34.9-0.6-56.6c-0.2-21.7-0.5-49.3-0.8-75.5
		c4.5,0,63.4-7,77.9-7.2v22.9v14.4c0,5.6,0.2,6.1,0.5,12.8c-4.5,0.2-8.8,0.3-13.1,0.3c-3.7,0.2-7.5,0.3-11.6,0.3
		c-4.1,0-7.7,0.1-10.9,0.3c-0.2,3.5-0.2,6.6-0.1,9.4c0.1,2.8,0.1,11.1,0.1,13.3v7c1,0,3.7,0,8.4,0.1c4.6,0.1,11.7,0,21.3-0.4V373
		v13.8c0,5.3,0.1,5.4,0.2,11.7h-8.4c-2.7,0-5.8,0-9.3-0.1c-3.5-0.1-7.3-0.1-11.2-0.1v6.2c0,4.1,0.2,15.4,0.7,22.3
		c2.5,0.2,5.6,0.3,9.1,0.5c2.9,0.2,6.4,0.4,10.5,0.6c4.1,0.3,8.8,0.5,13.9,0.6c-0.2,2.9-0.2,6.6-0.2,10.9c-0.2,3.6-0.2,8.1-0.2,13.4
		v26C752.1,478.8,691.5,473.7,681.4,473.6"/>
</g>
</svg>
