<?xml version="1.0" encoding="UTF-8"?>
<svg width="140px" height="140px" viewBox="0 0 140 140" version="1.1" xmlns="http://www.w3.org/2000/svg" xmlns:xlink="http://www.w3.org/1999/xlink">
    <!-- Generator: Sketch 40.3 (33839) - http://www.bohemiancoding.com/sketch -->
    <title>Group 14</title>
    <desc>Created with Sketch.</desc>
    <defs></defs>
    <g id="Symbols" stroke="none" stroke-width="1" fill="none" fill-rule="evenodd">
        <g id="Social-Button-Nav-Big" transform="translate(-448.000000, -246.000000)">
            <g id="Group-7" transform="translate(448.000000, 246.000000)">
                <g id="Group-14">
                    <rect id="Rectangle-11-Copy-8" fill="#ED4E23" x="0" y="0" width="140" height="140"></rect>
                    <g id="plusone" transform="translate(16.610169, 46.084746)" fill="#FFFFFF">
                        <path d="M75.9322034,13.7118644 L68.8135593,13.7118644 L68.8135593,23.2033898 L59.3220339,23.2033898 L59.3220339,29.8474576 L68.8135593,29.8474576 L68.8135593,39.3389831 L75.9322034,39.3389831 L75.9322034,29.8474576 L85.4237288,29.8474576 L85.4237288,22.9661017 L75.9322034,22.9661017 L75.9322034,13.7118644 L75.9322034,13.7118644 Z M90.1694915,8.96610169 L90.1694915,13.2372881 L97.2881356,13.2372881 L97.2881356,48.8305085 L104.40678,48.8305085 L104.40678,3.74576271 L90.1694915,8.96610169 L90.1694915,8.96610169 Z" id="Shape"></path>
                        <path d="M27.0508475,21.0677966 L27.0508475,31.7457627 L41.2881356,31.7457627 C40.3389831,37.9152542 34.8813559,42.4237288 27.0508475,42.4237288 C18.5084746,42.4237288 11.3898305,35.0677966 11.3898305,26.5254237 C11.3898305,17.9830508 18.2711864,10.6271186 27.0508475,10.6271186 C31.0847458,10.6271186 34.4067797,11.8135593 37.2542373,14.6610169 L44.8474576,7.06779661 C40.1016949,2.79661017 34.1694915,0.186440678 27.0508475,0.186440678 C12.5762712,0.186440678 0.711864407,12.0508475 0.711864407,26.5254237 C0.711864407,41 12.5762712,52.8644068 27.0508475,52.8644068 C42.4745763,52.8644068 52.440678,41.9491525 52.440678,27 C52.440678,25.1016949 52.2033898,22.9661017 51.9661017,21.0677966 L27.0508475,21.0677966 L27.0508475,21.0677966 Z" id="Shape"></path>
                    </g>
                </g>
            </g>
        </g>
    </g>
</svg>