<svg xmlns="http://www.w3.org/2000/svg" width="84" height="30" viewBox="0 0 84 30">
    <path fill="#FFF" fill-rule="evenodd" d="M65.25 0h11.122l-4.458 21.429H84L82.208 30H59l6.25-30zM6.477 0H31l-1.762 8.106h-13l-.635 2.701h11.254l-1.809 8.386H13.63l-.635 2.702H26.24L24.524 30H0L6.476 0zm47.241 1.351c1.975.902 3.517 2.213 4.624 3.937C59.447 7.01 60 9.054 60 11.413c0 1.025-.158 2.283-.474 3.774-.79 3.51-1.952 6.343-3.486 8.502-1.533 2.158-3.548 3.749-6.046 4.774C47.497 29.488 44.336 30 40.511 30h-.788l2.26-8.602c.907-.06 1.681-.213 2.321-.458.854-.326 1.565-.94 2.134-1.84.569-.9 1.043-2.205 1.423-3.913.253-1.087.38-2.08.38-2.981 0-1.212-.341-2.011-1.02-2.4-.68-.388-1.874-.582-3.58-.582h-1.708L39.34 21.429 37.09 30H26l6.449-30h14.51c2.53 0 4.782.45 6.758 1.351z"/>
</svg>
