<?xml version="1.0" encoding="utf-8"?>
<!-- Generator: Adobe Illustrator 19.2.1, SVG Export Plug-In . SVG Version: 6.00 Build 0)  -->
<svg version="1.1" id="Слой_1" xmlns="http://www.w3.org/2000/svg" xmlns:xlink="http://www.w3.org/1999/xlink" x="0px" y="0px"
	 viewBox="0 0 180 100.6" style="enable-background:new 0 0 180 100.6;" xml:space="preserve">
<style type="text/css">
	.st0{fill-rule:evenodd;clip-rule:evenodd;fill:#FFA103;}
	.st1{fill-rule:evenodd;clip-rule:evenodd;fill:#374549;}
</style>
<g>
	<path class="st0" d="M92.2,10c5.8,0,11.1,1.9,15.3,5.2l6.3-7.8C107.8,2.8,100.3,0,92.2,0c-8.1,0-15.6,2.8-21.6,7.4l6.3,7.8
		C81.1,11.9,86.4,10,92.2,10L92.2,10z"/>
	<path class="st1" d="M109.4,16.8c4.8,4.5,7.8,10.9,7.8,17.9c0,4.5-1.2,8.7-3.3,12.3l-13.8-13.3l-6.4-14.4v22.1l13.5,13.1
		c-4.2,3.1-9.4,5-15.1,5c-5.7,0-10.9-1.9-15.1-5l13.5-13.1V19.2l-6.4,14.4L70.5,47c-2.1-3.6-3.3-7.8-3.3-12.3c0-7.1,3-13.4,7.8-17.9
		L68.7,9c-7.1,6.3-11.5,15.5-11.5,25.7c0,19.2,15.7,34.7,35,34.7c19.3,0,35-15.5,35-34.7c0-10.2-4.4-19.4-11.5-25.7L109.4,16.8
		L109.4,16.8z"/>
	<polygon class="st1" points="41.8,94.8 41.8,83.8 41.8,83.5 44.3,79.9 57.7,79.9 57.7,83.8 46.9,83.8 46.9,85.6 54.2,85.6 
		54.2,89.1 46.9,89.1 46.9,90.9 57.7,90.9 57.7,94.8 41.8,94.8 	"/>
	<polygon class="st1" points="132.9,94.8 127.8,94.8 127.8,83.8 121.3,83.8 121.3,79.9 140.7,79.9 138.1,83.8 132.9,83.8 
		132.9,94.8 	"/>
	<polygon class="st1" points="85.4,94.8 78.8,79.9 84.2,79.9 87.3,87.3 90.6,79.9 94.1,79.9 97.4,87.4 100.6,79.9 105.6,79.9 
		99.1,94.8 95.4,94.8 92.2,87.4 88.8,94.8 85.4,94.8 	"/>
	<path class="st1" d="M143,79.9l11.6,0c1.9,0,3.8,1.1,3.8,3.2v2.5h-5.2v-1.8h-8.4v7.1h8.4v-2h5.2v2.7c0,1.9-1.9,3.3-3.9,3.3h-10.9
		c-2,0-3.8-1.4-3.8-3.2v-6.8L143,79.9L143,79.9z"/>
	<path class="st1" d="M65,94.8h-5.1v-15h14.5c1.7,0,3.5,0.9,3.5,3v3.8c0,1.7-2,2.6-3.7,2.6l6.5,5.6h-7.1l-6.2-5.6l0-3.1h5.7v-2.4H65
		V94.8L65,94.8z"/>
	<polygon class="st1" points="165.7,94.8 160.6,94.8 160.6,79.9 165.7,79.9 165.7,85.1 174.9,85.1 174.9,79.9 180,79.9 180,94.8 
		174.9,94.8 174.9,89.1 165.7,89.1 165.7,94.8 	"/>
	<polygon class="st1" points="107.2,94.8 101.6,94.8 111.6,79.9 115.5,79.9 125.3,94.8 119.5,94.8 113.3,85.3 107.2,94.8 	"/>
	<polygon class="st1" points="36.4,79.9 42.1,79.9 32.3,94.8 28.7,94.8 19.3,79.9 25.1,79.9 30.7,88.9 36.4,79.9 	"/>
	<polygon class="st0" points="109.4,94.8 117.5,94.8 113.4,100.6 109.4,94.8 	"/>
	<polygon class="st0" points="26.9,79.7 35,79.7 30.9,74 26.9,79.7 	"/>
	<path class="st1" d="M1.9,94.4l3.2-3.2v-7.4h9.4v7.1h-7l-3.9,3.9c0.1,0,0.1,0,0.2,0h12c2.1,0,3.9-1.3,3.9-3.2v-8l-2.5-3.7H3.6
		c-2,0-3.6,1.4-3.6,3.1v8.7C0,92.9,0.8,93.9,1.9,94.4L1.9,94.4z"/>
</g>
</svg>
