<?xml version="1.0" encoding="UTF-8"?>
<svg width="120px" height="118px" viewBox="0 0 120 118" version="1.1" xmlns="http://www.w3.org/2000/svg" xmlns:xlink="http://www.w3.org/1999/xlink">
    <!-- Generator: Sketch 47.1 (45422) - http://www.bohemiancoding.com/sketch -->
    <title></title>
    <desc>Created with Sketch.</desc>
    <defs></defs>
    <g id="Page-1" stroke="none" stroke-width="1" fill="none" fill-rule="evenodd">
        <g id="dashboard" transform="translate(-1128.000000, -308.000000)" fill="#F2F3F8">
            <g id="team" transform="translate(644.000000, 299.000000)">
                <g id="">
                    <path d="M546.857143,20.4285714 C519,20.4285714 495.428571,36.1428571 495.428571,54.7142857 C495.428571,64.5357143 502.035714,74 513.464286,80.6071429 L522.125,85.6071429 L519,93.1071429 C520.875,92.0357143 522.75,90.875 524.535714,89.625 L528.464286,86.8571429 L533.196429,87.75 C537.660714,88.5535714 542.214286,89 546.857143,89 C574.714286,89 598.285714,73.2857143 598.285714,54.7142857 C598.285714,36.1428571 574.714286,20.4285714 546.857143,20.4285714 Z M546.857143,9 C581.589286,9 609.714286,29.4464286 609.714286,54.7142857 C609.714286,79.9821429 581.589286,100.428571 546.857143,100.428571 C541.410714,100.428571 536.142857,99.8928571 531.142857,99 C523.732143,104.267857 515.339286,108.107143 506.321429,110.428571 C503.910714,111.053571 501.321429,111.5 498.642857,111.857143 L498.375,111.857143 C497.035714,111.857143 495.785714,110.785714 495.517857,109.267857 C495.160714,107.571429 496.321429,106.5 497.303571,105.339286 C500.785714,101.410714 504.714286,97.9285714 507.75,90.5178571 C493.285714,82.125 484,69.1785714 484,54.7142857 C484,29.4464286 512.125,9 546.857143,9 Z M620.25,113.375 C623.285714,120.785714 627.214286,124.267857 630.696429,128.196429 C631.678571,129.357143 632.839286,130.428571 632.482143,132.125 C632.125,133.732143 630.785714,134.892857 629.357143,134.714286 C626.678571,134.357143 624.089286,133.910714 621.678571,133.285714 C612.660714,130.964286 604.267857,127.125 596.857143,121.857143 C591.857143,122.75 586.589286,123.285714 581.142857,123.285714 C564.982143,123.285714 550.160714,118.821429 539,111.5 C541.589286,111.678571 544.267857,111.857143 546.857143,111.857143 C566.053571,111.857143 584.178571,106.321429 598.017857,96.3214286 C612.928571,85.4285714 621.142857,70.6964286 621.142857,54.7142857 C621.142857,50.0714286 620.428571,45.5178571 619.089286,41.1428571 C634.178571,49.4464286 644,62.6607143 644,77.5714286 C644,92.125 634.714286,104.982143 620.25,113.375 Z" id=""></path>
                </g>
            </g>
        </g>
    </g>
</svg>