<svg xmlns="http://www.w3.org/2000/svg" width="85" height="100" viewBox="0 0 85 100">
    <g fill="none" fill-rule="evenodd">
        <path d="M-14-5h114v114H-14z"/>
        <path fill="#FFF" fill-rule="nonzero" d="M56.667 0H28.333v9.524h28.334V0zm-18.89 61.905h9.445V33.333h-9.444v28.572zm37.92-31.476l6.706-6.762c-2.03-2.429-4.25-4.715-6.659-6.715l-6.705 6.762c-7.32-5.904-16.528-9.428-26.539-9.428-23.47 0-42.5 19.19-42.5 42.857C0 80.81 18.983 100 42.5 100S85 80.81 85 57.143c0-10.095-3.494-19.381-9.303-26.714zM42.5 90.476c-18.275 0-33.056-14.905-33.056-33.333 0-18.429 14.781-33.333 33.056-33.333s33.056 14.904 33.056 33.333c0 18.428-14.781 33.333-33.056 33.333z"/>
    </g>
</svg>
