<?xml version="1.0" encoding="utf-8"?>
<!-- Generator: Adobe Illustrator 19.2.1, SVG Export Plug-In . SVG Version: 6.00 Build 0)  -->
<svg version="1.1" id="Слой_1" xmlns="http://www.w3.org/2000/svg" xmlns:xlink="http://www.w3.org/1999/xlink" x="0px" y="0px"
	 viewBox="0 0 260.7 112.3" style="enable-background:new 0 0 260.7 112.3;" xml:space="preserve">
<style type="text/css">
	.st0{fill-rule:evenodd;clip-rule:evenodd;}
</style>
<g>
	<path class="st0" d="M252.1,52.7h-26.2c-4.7,0-8.6,3.9-8.6,8.6v22.5c0,4.7,3.9,8.6,8.6,8.6h26.2c4.7,0,8.6-3.9,8.6-8.6V61.3
		C260.7,56.6,256.8,52.7,252.1,52.7L252.1,52.7z M156,23.1h-3.2v-0.6c0.9,0,1.4-0.2,1-0.9c-0.6-1.2,2-1.1,2.4-0.9
		C156.8,21.2,156.4,22.5,156,23.1L156,23.1z M151.6,23.9h3.9c-0.4,0.7-1.6,2.9-2.4,2.9C152.7,26.3,151.7,24.9,151.6,23.9L151.6,23.9
		z M226.1,61.3H252v22.5h-25.9V61.3L226.1,61.3z M172.9,61.3h36v0c0-4.7-3.9-8.6-8.6-8.6h-27.7c-4.7,0-8.6,3.9-8.6,8.6v22.5
		c0,4.7,3.9,8.6,8.6,8.6h27.7c4.7,0,8.6-3.9,8.6-8.6V69h-29.2v0c0,3.7,3,6.6,6.6,6.6h14.4v8.2h-27.8V61.3L172.9,61.3z M60.4,61.3
		h34.4v0c0-4.7-3.9-8.6-8.6-8.6H59.6c-4.7,0-8.6,3.9-8.6,8.6v7c0,4.7,3.9,8.6,8.6,8.6h26.7v7H51l0,0c0,4.7,3.9,8.6,8.6,8.6h27.5
		c4.7,0,8.6-3.9,8.6-8.6v-7c0-4.7-3.9-8.6-8.6-8.6H60.4V61.3L60.4,61.3z M10.9,61.3h32.5v0c0-4.7-3.9-8.6-8.6-8.6H8.6
		c-4.7,0-8.6,3.9-8.6,8.6v22.5c0,4.7,3.9,8.6,8.6,8.6h26.2c4.7,0,8.6-3.9,8.6-8.6l0,0H10.9V61.3L10.9,61.3z M164.2,19.2
		c-0.2,0.1-0.4,0.2-0.6,0.2c-1.2,1.7-0.5,1.5-2.7,3c0,2.9,0.1,3.2,0.8,5.8c0,0.1,0,0.1,0,0.2c0,0.1-0.1,0.1-0.1,0.1
		c-0.5,0.1-1.3,0.3-1.7,0.4c0,0.1,0.2,1.7,0,3c-0.4,1.9-5,6.1-6,6.4c-1.5,0.3-3.2-1-5.9-2.2c-0.7-0.3-3.2-1.9-4.5-2.4
		c-1.1-0.4-2.1,2.2-0.8,2.9c0.6,0.3,1.6,0.8,1.9,1.6c0.9,2.4-0.1,11.6-2,13.4c-0.9,0-1.7-0.8-2.3-0.6c-1.2,0.7-0.4,4.3,0,4.9
		c7.3,7.5,6.5,13.1,9.6,17.3c1.4,0,0.5,1.5,1.6,3.3c0.3,0.9-0.1,2.4-0.2,3c0,0.8,0,1.5,0,2.3c-0.1,0.2-0.2,0.5-0.2,0.7
		c0,0.7,0,1.3,0,2c-0.2,1-0.5,2.3-0.7,3.2c-0.4,1.9,1.2,3.4,0.2,5.2c0,1.1,0,0.9-0.7,1.8c0,1.7-0.4,5.4,0,6.7
		c0.3,0.9,3.5,4.7,4.4,5.1c2,0.9,4.9,0.7,3.9,3.8c-5.8,1.8-9.4-1-12.5-1l-0.1,0.5c-2,0-3.5-0.5-4-0.6c0-0.5,0.6-4.6,0.9-5.3
		c0.2-0.3,0.4-0.7,0.7-1c0.2-0.7-0.2-5.8-0.3-7.2c-1.2-0.9-1.5-3.7-1.5-5.2c-0.4-1.2-0.4-2.6-0.4-4.1c0-0.7-0.5-1.8-0.2-2.7
		c0.2-0.6,0.9-0.9,1-1.4c0-0.6,0-1.1,0-1.7c0.3-1.8,0.2-2.6-0.9-3.7c-2.7,0-3.1,0.2-4.5-2.1c-0.5-0.7-4.2-6.7-4.6-6.8
		c-3.1-1.4-2.5-0.8-3.9-3.3c-0.1,0-0.9,0.3-1.6,1.4c-1.1,1.7-3.1,7.1-3.7,9c-0.3,1.1,0,2.2-0.5,3.1c-0.3,0.6-1.5,0.8-1.7,1.3
		c-1.1,2-0.3,1.8-2.4,3.2c-0.4,0.5-0.4,1.2-0.7,1.8c-0.2,0.2-0.3,0.4-0.5,0.7c-0.4,0.8,0.4,2.1,0.2,2.6c-0.4,1.2-0.8,2.5-1.3,3.6
		c-1,2.3-0.8,5.3-1.8,6.7c-0.5,0.7-1.7,0-2.6,0.6c-0.1,0.5-1.5,3.7-1.8,4.6c0,1.7,0,3.4,0,5.2c0.3,0.9,1,1.7,0.8,2.8
		c-0.2,1.2-4.3,1.2-6.5,0.8c-1.5-0.2-1.9-1.3-1.9-2.6c0-1.5,3-11.2,2.9-11.8c-2.3-2.6,0.6-5.2,1.5-7.6c0.4-1.2,0.2-2.8,0.6-3.9
		c0.8-1.5,1.6-2.9,2.4-4.4c1.5-1.4,0.8-1.5,1.6-2.7c0.7-1.1,1.5-1.8,1-3.5c-1-3.3,1.1-8,1.3-11.5c-0.4-0.4-1.6-0.3-1.8-1.3
		c-0.3-2.2,0.8-6,1.5-6.3c0.3-0.2,0.7,0,0.9-0.2c0-1.6-1.6-10.6-0.4-11.1c0.8-0.3,2.5-0.4,2.8-0.6c0-0.4-0.3-1.2-0.6-1.2
		c-0.5-0.1-1.6-0.3-2.5-0.5c-2.7-0.6-0.2-11.2-0.2-11.3c0.7-1,4.2,0.3,4.6-1.3c1.1-1.5-0.9-7.1,3-14.1c1.3-2.3,3.9-4.7,6.8-3.7
		c1,0.3,0.4,1.8,2.1,0.2c0-0.9-0.4-1.6-0.6-2.4c-2.9-8.6,6.9-13.3,13.8-8.4c0.8,0.3,1.2,0.5,1.8,0.9c0.4,2,2.3,5.4,0.4,7.7
		c-0.8,0.2-1.8,0.6-2.4,1c0,0.8,0.1,1.5,0.2,2c0.1,0.4,0.4,0.6-0.3,0.9c-0.1,0,0,0.3,0,0.4c1.6,0.3,3.3-0.3,4.4-0.7h1.3v-1.6h0.3
		h0.3v-1.3h0.6v2.2h1.6v0.7h23.7v1.2h1v-4.5h0.9v3.7h2v2.1h6.3V16h1v0.3h3v1.7h-3v0.3h-1v-0.6h-6.3v0.6c-0.9,0-1.8,0-2.8,0v-0.4
		h-1.2v1.3H164.2L164.2,19.2z"/>
</g>
</svg>
