<?xml version="1.0" encoding="UTF-8"?>
<svg width="140px" height="140px" viewBox="0 0 140 140" version="1.1" xmlns="http://www.w3.org/2000/svg" xmlns:xlink="http://www.w3.org/1999/xlink">
    <!-- Generator: Sketch 40.3 (33839) - http://www.bohemiancoding.com/sketch -->
    <title>Group 21</title>
    <desc>Created with Sketch.</desc>
    <defs></defs>
    <g id="Symbols" stroke="none" stroke-width="1" fill="none" fill-rule="evenodd">
        <g id="Social-Button-Nav-Big" transform="translate(-253.000000, -15.000000)">
            <g id="Group-27" transform="translate(253.000000, 15.000000)">
                <g id="Group-21">
                    <rect id="Rectangle-11-Copy-5" fill="#3D5A96" x="0" y="0" width="140" height="140"></rect>
                    <g id="Page-1" transform="translate(45.084746, 47.457627)" fill="#FFFFFF">
                        <path d="M27.2885095,54.5766451 L7.58192762,54.5766451 C3.33407451,54.1218429 0.000373942791,50.7881423 0.000373942791,46.5402892 L0.000373942791,7.58192762 C-0.0405582606,3.43867903 3.28404626,0.0413061462 7.42729485,0.000373942791 L7.58192762,0.000373942791 L46.9950915,0.000373942791 C51.13834,-0.0405582606 54.5357129,3.28404626 54.5766451,7.42729485 L54.5766451,7.58192762 L54.5766451,46.5402892 C54.5766451,50.7881423 51.2429446,54.1218429 46.9950915,54.5766451 L36.3845547,54.5766451 L36.3845547,36.5346395 L42.2969841,36.5346395 L45.4805999,27.1384248 L36.3845547,27.1384248 L36.3845547,22.4357694 C36.3845547,20.3163909 37.1440745,18.3425491 40.3276903,18.3425491 L45.4805999,18.3425491 L45.4805999,10.1561084 C45.6306847,10.1561084 41.2372948,8.94633439 38.5084813,8.94633439 C32.7461367,8.94633439 27.4385943,12.1299502 27.2885095,18.6472666 L27.2885095,27.1384248 L18.1924643,27.1384248 L18.1924643,36.5346395 L27.2885095,36.5346395 L27.2885095,54.5766451 Z" id="Fill-1"></path>
                    </g>
                </g>
            </g>
        </g>
    </g>
</svg>